<svg id="Capa_1" data-name="Capa 1" xmlns="http://www.w3.org/2000/svg" viewBox="0 0 63.96 83.34"><defs><style>.cls-1{fill:#274a68;}.cls-2{fill:#5071ab;}.cls-3{fill:#6c93c4;}</style></defs><title>ospain chhchachanges</title><polygon class="cls-1" points="63.96 55.75 56.83 55.75 56.83 53.31 61.43 53.31 61.43 2.44 2.53 2.44 2.53 53.31 7.22 53.31 7.22 55.75 0 55.75 0 0 63.96 0 63.96 55.75"/><path class="cls-2" d="M32,8a23.91,23.91,0,1,0,23.91,23.9A23.88,23.88,0,0,0,32,8ZM39,40.5H25.26V26.7l6.85-6.94L39,26.7Z"/><path class="cls-3" d="M26.16,40.5h-1A24.24,24.24,0,0,1,14.7,37.62a22.28,22.28,0,0,1-6.58-5.33A23.85,23.85,0,0,0,32,55.84a24.94,24.94,0,0,0,6.95-1V40.5Z"/><path class="cls-1" d="M50.06,16.24A23.85,23.85,0,0,0,8.12,31.84v.27a23.49,23.49,0,0,0,6.58,5.33,24.24,24.24,0,0,0,10.47,2.88V26.7l6.76-6.85.09-.09h0a24.07,24.07,0,0,1,17.32,2.16,23.75,23.75,0,0,1,5.87,4.51A23.77,23.77,0,0,0,50.06,16.24Z"/><path class="cls-2" d="M55.3,26.61a23.75,23.75,0,0,0-5.87-4.51A23.48,23.48,0,0,0,38,19.21a25,25,0,0,0-5.87.73l6.77,6.85v28a23.91,23.91,0,0,0,17-22.92A25.15,25.15,0,0,0,55.3,26.61Z"/><path class="cls-2" d="M2,71.26a6.92,6.92,0,0,1,2.52-2.52,6.26,6.26,0,0,1,3.45-.93,6.8,6.8,0,0,1,3.45.93,7.41,7.41,0,0,1,2.52,2.52,6.26,6.26,0,0,1,.93,3.45,6.71,6.71,0,0,1-.93,3.45,7.68,7.68,0,0,1-2.52,2.52,6.8,6.8,0,0,1-6.9,0A7.32,7.32,0,0,1,2,78.16,6.71,6.71,0,0,1,1,74.71,6.26,6.26,0,0,1,2,71.26Zm2.35,5.59a4.35,4.35,0,0,0,1.54,1.59A4.24,4.24,0,0,0,8,79a4.05,4.05,0,0,0,2.08-.6,5.06,5.06,0,0,0,1.48-1.54,4.77,4.77,0,0,0,.55-2.19,4.25,4.25,0,0,0-.55-2.19,4.63,4.63,0,0,0-1.48-1.59A4.05,4.05,0,0,0,8,70.33a3.93,3.93,0,0,0-2.09.6,3.78,3.78,0,0,0-1.48,1.59,4.24,4.24,0,0,0-.54,2.19A3.67,3.67,0,0,0,4.32,76.85Z"/><path class="cls-1" d="M20.76,70.16a2.41,2.41,0,0,0-1.37.33,1.21,1.21,0,0,0-.49,1,1.35,1.35,0,0,0,.71,1.15,8.78,8.78,0,0,0,1.87.94,5.85,5.85,0,0,1,1.64.82,3.63,3.63,0,0,1,1.15,1.26,4.48,4.48,0,0,1,.44,2,3.27,3.27,0,0,1-.55,1.91,4,4,0,0,1-1.59,1.43,5.86,5.86,0,0,1-2.52.55,7.24,7.24,0,0,1-2.41-.39,7.32,7.32,0,0,1-2.25-1.09l1.21-2.09a6.11,6.11,0,0,0,1.59.83,4.8,4.8,0,0,0,1.59.33,2.69,2.69,0,0,0,1.48-.39,1.15,1.15,0,0,0,.6-1.15c0-.71-.66-1.31-2-1.81-.77-.33-1.43-.6-1.92-.87a4.84,4.84,0,0,1-1.32-1.21,3.35,3.35,0,0,1-.54-2A3.65,3.65,0,0,1,17.26,69a4.68,4.68,0,0,1,3.06-1.15,8.3,8.3,0,0,1,2.53.33,8.46,8.46,0,0,1,2,1l-1,2A6.28,6.28,0,0,0,20.76,70.16Z"/><path class="cls-1" d="M34.3,69.12a4.2,4.2,0,0,1,1.37,3.35,5,5,0,0,1-.5,2.24,4.27,4.27,0,0,1-1.53,1.76,5.14,5.14,0,0,1-2.74.65H29V81.4H26.3V67.92h4.11A5.53,5.53,0,0,1,34.3,69.12Zm-2.14,5.1a1.58,1.58,0,0,0,.66-.82,3,3,0,0,0,.22-.88,2.58,2.58,0,0,0-.44-1.37A1.79,1.79,0,0,0,31,70.49H29v4.06H31A2.07,2.07,0,0,0,32.16,74.22Z"/><path class="cls-1" d="M42.46,78.77H38l-1.1,2.63H34.24l6.09-14h.16l6.08,14H43.5Zm-.87-2.25-1.32-3.29L38.9,76.52Z"/><path class="cls-1" d="M50.3,67.92V81.45H47.61V67.92Z"/><path class="cls-1" d="M65,67.92V82H65L55.5,73.4l.06,8H52.87v-14H53L62.41,76l-.06-8.11Z"/></svg>