<svg id="Capa_1" data-name="Capa 1" xmlns="http://www.w3.org/2000/svg" viewBox="0 0 90.66 97.55"><defs><style>.cls-1{fill:#3c4747;}</style></defs><title>ospain-carrito</title><path class="cls-1" d="M90.64,30.19s0-.1,0-.14,0-.08,0-.12a1.29,1.29,0,0,1,0-.14s0-.08,0-.12,0-.08,0-.12a1,1,0,0,1-.06-.14.44.44,0,0,0-.06-.1l-.06-.12-.06-.1L90.16,29a.38.38,0,0,0-.08-.1s-.06-.06-.08-.1-.06-.06-.08-.1-.06-.06-.08-.08l-.1-.1s-.06-.06-.1-.08l-.12-.08-.1-.06a.42.42,0,0,1-.12-.08l-.12-.06-.12-.06L88.93,28l-.12,0a.37.37,0,0,0-.14,0l-.08,0a.62.62,0,0,0-.18,0,.2.2,0,0,0-.08,0L20.2,18.46V9a1.25,1.25,0,0,0,0-.28.15.15,0,0,0,0-.08c0-.06,0-.12,0-.18s0-.1,0-.16,0-.06,0-.1L20,8s0-.06,0-.08a.58.58,0,0,0-.08-.16s0-.06,0-.08a.45.45,0,0,0-.08-.12l-.06-.1-.06-.1s-.06-.08-.08-.12l-.06-.06L19.42,7,19.36,7a.89.89,0,0,0-.14-.12l-.08-.06L19,6.69l-.16-.1-.06,0-.26-.12L3.76.21a2.71,2.71,0,1,0-2.1,5l13.11,5.53V70a11.08,11.08,0,0,0,9.64,11A10.92,10.92,0,1,0,44.7,86.63a10.72,10.72,0,0,0-1.5-5.51H67.54A10.78,10.78,0,0,0,66,86.63,10.93,10.93,0,1,0,77,75.7H25.84A5.66,5.66,0,0,1,20.18,70V62.71a11.19,11.19,0,0,0,5.65,1.52H79.59A11.09,11.09,0,0,0,90.66,53.16V30.31A.26.26,0,0,0,90.64,30.19ZM77,81.09a5.51,5.51,0,1,1-5.51,5.51A5.52,5.52,0,0,1,77,81.09Zm-43.19,0a5.51,5.51,0,1,1-5.51,5.51A5.52,5.52,0,0,1,33.8,81.09ZM85.24,41.82h-9.9V31.51l9.9,1.36Zm-41.38,0H35.22V26l8.64,1.19Zm4.77-14L57.36,29V41.82H48.63ZM43.86,46.42v12.4H35.22V46.42Zm4.77,0h8.73v12.4H48.63Zm13.33,0H70.8v12.4H62Zm0-4.6V29.67l8.85,1.22V41.82ZM20.18,24.92v-1l10.27,1.41V41.82H20.18V24.92Zm0,28.25V46.42H30.45v12.4H25.84A5.66,5.66,0,0,1,20.18,53.16Zm59.41,5.65H75.34V46.42h9.9v6.73A5.66,5.66,0,0,1,79.59,58.82Z"/></svg>