<?xml version="1.0" encoding="utf-8"?>
<!-- Generator: Adobe Illustrator 22.0.1, SVG Export Plug-In . SVG Version: 6.00 Build 0)  -->
<svg version="1.1" id="Capa_1" xmlns="http://www.w3.org/2000/svg" xmlns:xlink="http://www.w3.org/1999/xlink" x="0px" y="0px"
	 viewBox="0 0 109.1 109.1" style="enable-background:new 0 0 109.1 109.1;" xml:space="preserve">
<style type="text/css">
	.st0{fill-rule:evenodd;clip-rule:evenodd;fill:#274A68;}
	.st1{fill:#274A68;}
</style>
<g>
	<g>
		<g>
			<path class="st1" d="M54.5,0C24.5,0,0,24.5,0,54.5c0,30.1,24.5,54.5,54.5,54.5c30.1,0,54.5-24.5,54.5-54.5
				C109.1,24.5,84.6,0,54.5,0z M78.9,42.1c0,0.5,0,1.1,0,1.6c0,16.6-12.6,35.7-35.7,35.7c-7.1,0-13.7-2.1-19.2-5.6
				c1,0.1,2,0.2,3,0.2c5.9,0,11.3-2,15.6-5.4c-5.5-0.1-10.1-3.7-11.7-8.7c0.8,0.1,1.6,0.2,2.4,0.2c1.1,0,2.3-0.1,3.3-0.4
				c-5.7-1.2-10.1-6.2-10.1-12.3c0-0.1,0-0.1,0-0.2c1.7,0.9,3.6,1.5,5.7,1.6c-3.4-2.2-5.6-6.1-5.6-10.4c0-2.3,0.6-4.5,1.7-6.3
				c6.2,7.6,15.4,12.6,25.9,13.1c-0.2-0.9-0.3-1.9-0.3-2.9c0-6.9,5.6-12.6,12.6-12.6c3.6,0,6.9,1.5,9.2,4c2.9-0.6,5.5-1.6,8-3
				c-0.9,2.9-2.9,5.4-5.5,6.9c2.5-0.3,5-1,7.2-2C83.5,38.1,81.3,40.3,78.9,42.1z"/>
		</g>
	</g>
</g>
</svg>
