<?xml version="1.0" encoding="utf-8"?>
<!-- Generator: Adobe Illustrator 22.0.1, SVG Export Plug-In . SVG Version: 6.00 Build 0)  -->
<svg version="1.1" id="Capa_1" xmlns="http://www.w3.org/2000/svg" xmlns:xlink="http://www.w3.org/1999/xlink" x="0px" y="0px"
	 viewBox="0 0 109.6 109.6" style="enable-background:new 0 0 109.6 109.6;" xml:space="preserve">
<style type="text/css">
	.st0{fill-rule:evenodd;clip-rule:evenodd;fill:#274A68;}
	.st1{fill:#274A68;}
</style>
<g>
	<path class="st1" d="M71.1,29.2H38.5c-5.2,0-9.5,4.2-9.5,9.5v32.7c0,5.2,4.2,9.5,9.5,9.5h32.7c5.2,0,9.5-4.2,9.5-9.5V38.6
		C80.6,33.4,76.4,29.2,71.1,29.2z M54.8,71.9c-9.4,0-17-7.6-17-17c0-9.4,7.6-17,17-17c9.4,0,17,7.6,17,17
		C71.8,64.3,64.2,71.9,54.8,71.9z M72.3,41.5c-2.2,0-4-1.8-4-4c0-2.2,1.8-4,4-4c2.2,0,4,1.8,4,4C76.4,39.7,74.6,41.5,72.3,41.5z"/>
	<path class="st1" d="M54.8,45.2c-5.4,0-9.8,4.4-9.8,9.8c0,5.4,4.4,9.8,9.8,9.8c5.4,0,9.8-4.4,9.8-9.8
		C64.6,49.6,60.2,45.2,54.8,45.2z"/>
	<path class="st1" d="M54.8,0C24.5,0,0,24.5,0,54.8s24.5,54.8,54.8,54.8s54.8-24.5,54.8-54.8S85.1,0,54.8,0z M87.8,71.3
		c0,9.2-7.5,16.6-16.6,16.6H38.5c-9.2,0-16.6-7.5-16.6-16.6V38.6c0-9.2,7.5-16.6,16.6-16.6h32.7c9.2,0,16.6,7.5,16.6,16.6V71.3z"/>
</g>
</svg>
